<?xml version="1.0" encoding="UTF-8" standalone="no"?>
<svg
   width="205.95621"
   height="191.20123"
   fill="none"
   version="1.1"
   id="svg6"
   xmlns="http://www.w3.org/2000/svg"
   xmlns:svg="http://www.w3.org/2000/svg">
  <defs
     id="defs6" />
  <path
     fill="#ffffff"
     d="m 205.25116,140.555 a 19,19 0 0 0 -2.575,-5.692 q 0.376,-1.377 0.568,-2.791 c 0.829,-5.976 -1.243,-11.447 -5.147,-15.68 -2.115,-2.312 -4.382,-3.839 -6.783,-4.776 a 90.6,90.6 0 0 0 2.377,-20.568 c 0,-3.163 -0.179,-6.261 -0.479,-9.313 a 106,106 0 0 0 -0.567,-4.56 91,91 0 0 0 -3.051,-13.21 91,91 0 0 0 -3.054,-8.374 92,92 0 0 0 -6.041,-11.754 81,81 0 0 0 -4.907,-7.262 69,69 0 0 0 -2.704,-3.446 90.5,90.5 0 0 0 -9.033,-9.486 70,70 0 0 0 -3.315,-2.862 82,82 0 0 0 -3.424,-2.704 96,96 0 0 0 -7.262,-4.907 C 136.07316,4.8 119.91216,0 102.63916,0 52.347161,0 11.587161,40.762 11.587161,91.051 c -0.002,7.012 0.81,14 2.42,20.824 -2.16,0.938 -4.2299996,2.4 -6.1499996,4.515 -3.903,4.231 -5.976,9.682 -5.147,15.658 q 0.189,1.425 0.567,2.813 a 19,19 0 0 0 -2.57300004,5.694 c -1.2,4.561 -0.805,8.674 0.72000004,12.278 -1.65800004,4.71 -1.24400004,9.726 0.915,14.087 1.57,3.185 3.817,5.649 6.587,7.851 3.2929996,2.618 7.4149996,4.842 12.3869996,6.976 5.932,2.53 13.173,4.907 16.466,5.779 8.506,2.202 16.662,3.598 24.928,3.666 11.777,0.109 21.919,-2.66 29.18,-9.747 a 88,88 0 0 0 10.751999,0.654 94,94 0 0 0 11.358,-0.715 c 7.244,7.132 17.425,9.926 29.245,9.814 8.265,-0.066 16.421,-1.462 24.905,-3.667 3.315,-0.872 10.553,-3.249 16.488,-5.779 4.972,-2.137 9.094,-4.361 12.409,-6.975 2.749,-2.203 4.994,-4.666 6.565,-7.851 2.181,-4.362 2.573,-9.378 0.938,-14.088 1.51,-3.604 1.903,-7.726 0.704,-12.283 m -8.44,11.973 c 1.671,3.171 1.778,6.754 0.304,10.091 -2.236,5.057 -7.79,9.041 -18.577,13.318 -6.708,2.66 -12.85,4.361 -12.904,4.376 -8.872,2.301 -16.896,3.47 -23.842,3.47 -11.502,0 -20.061,-3.174 -25.489,-9.442 a 85.5,85.5 0 0 1 -27.746999,0.158 c -5.435,6.164 -13.945,9.284 -25.35,9.284 -6.947,0 -14.97,-1.169 -23.843,-3.47 -0.054,-0.015 -6.194,-1.716 -12.904,-4.376 -10.786,-4.277 -16.342,-8.258 -18.5769996,-13.318 -1.474,-3.337 -1.367,-6.92 0.304,-10.091 q 0.231,-0.443 0.497,-0.86 a 12.8,12.8 0 0 1 -1.728,-10.341 c 0.664,-2.523 2.035,-4.621 3.8969996,-6.128 a 12.75,12.75 0 0 1 -1.7299996,-4.822 c -0.536,-3.714 0.697,-7.422 3.4699996,-10.446 2.16,-2.353 5.213,-3.648 8.593,-3.648 h 0.09 a 84.5,84.5 0 0 1 -3.832,-25.235 c 0,-46.671 37.836,-84.51 84.513999,-84.51 46.678,0 84.513,37.835 84.513,84.51 a 84.4,84.4 0 0 1 -3.859,25.299 q 0.612,-0.06 1.201,-0.061 c 3.38,0 6.434,1.295 8.592,3.648 2.773,3.021 4.007,6.732 3.47,10.446 a 12.8,12.8 0 0 1 -1.729,4.822 c 1.862,1.507 3.234,3.605 3.897,6.128 a 12.8,12.8 0 0 1 -1.728,10.341 q 0.267,0.413 0.497,0.857"
     id="path1" />
  <path
     fill="#ff9d00"
     d="m 196.31416,151.671 a 12.8,12.8 0 0 0 1.728,-10.341 c -0.664,-2.523 -2.036,-4.621 -3.897,-6.128 a 12.7,12.7 0 0 0 1.729,-4.822 c 0.537,-3.714 -0.696,-7.422 -3.47,-10.446 -2.158,-2.353 -5.212,-3.648 -8.592,-3.648 q -0.59,0 -1.201,0.061 a 84.4,84.4 0 0 0 3.852,-25.297 c 0,-46.672 -37.836,-84.51 -84.509,-84.51 -46.672999,0 -84.513999,37.835 -84.513999,84.51 a 84.5,84.5 0 0 0 3.832,25.235 h -0.09 c -3.38,0 -6.433,1.294 -8.592,3.647 -2.7729996,3.021 -4.0069996,6.733 -3.4699996,10.446 a 12.8,12.8 0 0 0 1.7299996,4.823 c -1.8619996,1.506 -3.2339996,3.604 -3.8979996,6.127 a 12.8,12.8 0 0 0 1.73,10.343 q -0.266,0.417 -0.497,0.86 c -1.67,3.171 -1.778,6.754 -0.303,10.091 2.2359996,5.057 7.7899996,9.041 18.5769996,13.318 6.707,2.66 12.85,4.361 12.904,4.376 8.872,2.301 16.896,3.47 23.842,3.47 11.406,0 19.916,-3.12 25.351,-9.284 a 85.5,85.5 0 0 0 27.746999,-0.158 c 5.428,6.268 13.987,9.442 25.489,9.442 6.946,0 14.97,-1.169 23.841,-3.47 0.055,-0.015 6.195,-1.716 12.905,-4.376 10.787,-4.277 16.342,-8.261 18.577,-13.318 1.474,-3.337 1.367,-6.92 -0.304,-10.091 q -0.23,-0.447 -0.497,-0.86 M 84.667161,164.852 a 35,35 0 0 1 -1.502,2.394 c -1.405,2.057 -3.253,3.629 -5.398,4.797 -4.1,2.236 -9.29,3.017 -14.562,3.017 -8.329,0 -16.867,-1.949 -21.652,-3.19 -0.236,-0.061 -29.334,-8.28 -25.65,-15.276 0.62,-1.177 1.64,-1.647 2.925,-1.647 5.187,0 14.632,7.724 18.69,7.724 0.908,0 1.548,-0.386 1.809,-1.328 1.73,-6.204 -26.293,-8.812 -23.933,-17.796 0.416,-1.59 1.546,-2.236 3.134,-2.236 6.858,-0.001 22.25,12.06 25.469,12.06 0.247,0 0.424,-0.073 0.52,-0.225 q 0.021,-0.034 0.041,-0.069 c 1.511,-2.495 0.644,-4.309 -9.707,-10.649 l -0.994,-0.605 c -11.391,-6.894 -19.386,-11.043 -14.84,-15.993 0.524,-0.571 1.266,-0.824 2.167,-0.824 1.068,0 2.36,0.357 3.785,0.957 6.016,2.537 14.354,9.456 17.837,12.473 a 146,146 0 0 1 1.633,1.441 c 0,0 4.41,4.586 7.076,4.586 0.614,0 1.135,-0.242 1.488,-0.84 1.891,-3.188 -17.563,-17.93 -18.66,-24.013 -0.744,-4.121 0.522,-6.209 2.862,-6.209 1.113,0 2.47,0.474 3.97,1.425 4.65,2.951 13.628,18.379 16.915,24.381 1.102,2.011 2.983,2.861 4.678,2.861 3.363,0 5.992,-3.343 0.308,-7.591 -8.543,-6.392 -5.545,-16.84 -1.468,-17.483 q 0.262,-0.042 0.525,-0.042 c 3.708,0 5.343,6.389 5.343,6.389 0,0 4.794,12.038 13.029,20.267 7.472,7.469 8.516,13.598 4.162,21.244 m 26.628999,1.41 -0.427,0.051 -0.728,0.083 q -0.575,0.06 -1.152,0.113 l -0.375,0.034 -0.343,0.029 -0.486,0.039 -0.537,0.039 -0.536,0.035 -0.119,0.008 q -0.21,0.013 -0.422,0.024 l -0.179,0.01 q -0.248,0.013 -0.5,0.024 l -0.581,0.025 -0.527,0.018 -0.352,0.01 h -0.179 c -0.11,0 -0.219,0.006 -0.329,0.007 h -0.174 q -0.165,-0.001 -0.329,0.005 l -0.448,0.006 h -0.625 q -0.737,0 -1.469,-0.015 l -0.396,-0.009 q -0.169999,-0.001 -0.336999,-0.009 l -0.42,-0.012 -0.521,-0.02 -0.47,-0.021 -0.121,-0.005 -0.447,-0.023 q -0.187,-0.01 -0.372,-0.022 l -0.289,-0.017 a 80,80 0 0 1 -1.089,-0.076 l -0.38,-0.031 q -0.24,-0.019 -0.479,-0.041 -0.28,-0.024 -0.561,-0.052 a 60,60 0 0 1 -0.939,-0.095 h -0.015 c 4.57,-10.195 2.259,-19.717 -6.976,-28.944 -6.057,-6.049 -10.086,-14.981 -10.922,-16.942 -1.692,-5.805 -6.17,-12.258 -13.607,-12.258 q -0.945,0 -1.878,0.148 c -3.258,0.513 -6.106,2.388 -8.138,5.21 -2.196,-2.731 -4.33,-4.902 -6.26,-6.128 -2.91,-1.845 -5.814,-2.781 -8.643,-2.781 -3.531,0 -6.687,1.45 -8.887,4.08 l -0.056,0.067 q -0.062,-0.26 -0.123,-0.52 l -0.005,-0.023 a 74,74 0 0 1 -1.054,-5.412 q 0.002,-0.018 -0.006,-0.036 -0.032,-0.206 -0.063,-0.412 -0.093,-0.61 -0.173,-1.22 -0.037,-0.278 -0.073,-0.555 l -0.068,-0.555 c -0.022,-0.185 -0.04,-0.353 -0.06,-0.529 l -0.006,-0.044 q -0.12,-1.08 -0.21,-2.162 l -0.022,-0.277 -0.035,-0.472 q -0.016,-0.194 -0.027,-0.389 c 0,-0.031 -0.005,-0.061 -0.006,-0.09 a 53,53 0 0 1 -0.065,-1.088 q -0.016,-0.283 -0.028,-0.567 l -0.02,-0.496 -0.005,-0.15 -0.016,-0.457 -0.01,-0.389 c 0,-0.155 -0.008,-0.31 -0.01,-0.465 -0.003,-0.155 -0.007,-0.325 -0.008,-0.489 -0.002,-0.164 0,-0.326 -0.005,-0.489 -0.004,-0.164 0,-0.327 0,-0.49 0,-41.853 33.93,-75.784 75.787999,-75.784 41.856,0 75.786,33.93 75.786,75.784 v 0.979 q -0.002,0.245 -0.008,0.489 c 0,0.135 -0.006,0.268 -0.01,0.405 q -0.002,0.182 -0.009,0.357 c 0,0.153 -0.009,0.306 -0.014,0.459 v 0.012 l -0.021,0.531 q -0.01,0.233 -0.021,0.466 l -0.005,0.11 -0.027,0.496 a 81,81 0 0 1 -0.241,3.184 v 0.013 q -0.025,0.261 -0.053,0.522 l -0.045,0.411 -0.089,0.804 -0.051,0.407 -0.063,0.479 q -0.034,0.262 -0.072,0.522 -0.04,0.292 -0.084,0.583 l -0.069,0.459 -0.082,0.52 q -0.042,0.26 -0.09,0.517 c -0.033,0.173 -0.059,0.345 -0.089,0.517 q -0.09,0.516 -0.189,1.031 -0.151,0.77 -0.31,1.537 l -0.11,0.507 q -0.055,0.254 -0.113,0.508 c -2.133,-2.073 -4.958,-3.202 -8.073,-3.202 -2.827,0 -5.734,0.935 -8.643,2.78 -1.93,1.226 -4.063,3.398 -6.26,6.128 -2.035,-2.822 -4.883,-4.697 -8.139,-5.21 a 12,12 0 0 0 -1.878,-0.148 c -7.439,0 -11.914,6.453 -13.607,12.258 -0.84,1.961 -4.87,10.893 -10.932,16.951 -9.229,9.198 -11.557,18.677 -7.059,28.83 m 78.241,-20.409 -0.03,0.089 a 5,5 0 0 1 -0.263,0.587 q -0.112,0.21 -0.244,0.408 -0.25,0.374 -0.549,0.711 c -0.046,0.052 -0.09,0.104 -0.142,0.155 a 8,8 0 0 1 -0.22,0.227 c -1.346,1.334 -3.398,2.504 -5.718,3.577 q -0.395,0.178 -0.799,0.358 l -0.268,0.119 c -0.179,0.079 -0.358,0.157 -0.546,0.234 q -0.27,0.118 -0.551,0.232 l -0.558,0.23 c -1.305,0.537 -2.642,1.049 -3.946,1.554 l -0.558,0.217 -0.551,0.216 q -0.55,0.214 -1.085,0.429 l -0.531,0.214 -0.522,0.213 -0.256,0.108 q -0.255,0.107 -0.505,0.213 c -3.837,1.647 -6.598,3.322 -6.018,5.4 q 0.024,0.088 0.054,0.17 0.078,0.23 0.212,0.436 0.078,0.122 0.179,0.228 c 0.682,0.709 1.923,0.597 3.488,0.034 q 0.33,-0.121 0.656,-0.253 l 0.136,-0.056 c 0.358,-0.152 0.737,-0.322 1.124,-0.506 0.097,-0.046 0.195,-0.09 0.293,-0.141 1.914,-0.936 4.083,-2.196 6.235,-3.343 a 56,56 0 0 1 2.618,-1.325 c 2.038,-0.959 3.954,-1.639 5.494,-1.639 0.723,0 1.361,0.148 1.893,0.488 l 0.089,0.059 c 0.334,0.235 0.614,0.537 0.823,0.887 q 0.061,0.101 0.12,0.211 c 0.761,1.445 0.124,2.941 -1.367,4.408 -1.431,1.409 -3.657,2.79 -6.187,4.068 q -0.281,0.143 -0.567,0.283 c -7.53,3.698 -17.391,6.483 -17.528,6.518 -2.628,0.681 -6.386,1.575 -10.62,2.244 l -0.626,0.098 -0.103,0.015 q -0.711,0.108 -1.425,0.201 -0.725,0.097 -1.462,0.179 l -0.09,0.01 a 69,69 0 0 1 -5.358,0.406 h -0.026 q -0.971,0.035 -1.943,0.035 h -0.747 a 46,46 0 0 1 -2.959,-0.134 q -0.035,0.002 -0.071,-0.006 -0.53,-0.04 -1.057,-0.099 a 40,40 0 0 1 -1.092,-0.132 25,25 0 0 1 -0.715,-0.107 58,58 0 0 1 -0.725,-0.121 l -0.329,-0.062 -0.025,-0.005 a 26,26 0 0 1 -1.036,-0.219 c -0.2,-0.045 -0.399,-0.089 -0.596,-0.143 l -0.119,-0.03 q -0.146,-0.037 -0.29,-0.076 l -0.053,-0.014 -0.308,-0.09 q -0.168,-0.048 -0.336,-0.098 l -0.039,-0.011 -0.291,-0.089 q -0.165,-0.052 -0.329,-0.106 l -0.268,-0.089 -0.197,-0.069 q -0.285,-0.1 -0.566,-0.208 l -0.178,-0.07 -0.147,-0.058 a 23,23 0 0 1 -0.845,-0.358 l -0.185,-0.09 -0.031,-0.014 q -0.099,-0.048 -0.197,-0.089 a 17,17 0 0 1 -0.384,-0.191 l -0.039,-0.019 -0.184,-0.097 a 16,16 0 0 1 -0.961,-0.546 l -0.172,-0.106 a 9,9 0 0 1 -0.256,-0.164 l -0.224,-0.148 -0.241,-0.166 -0.144,-0.103 q -0.228,-0.162 -0.447,-0.335 l -0.233,-0.179 a 15,15 0 0 1 -0.276,-0.228 q -0.115,-0.095 -0.227,-0.195 l -0.006,-0.005 q -0.121,-0.106 -0.239,-0.215 a 12,12 0 0 1 -0.232,-0.216 l -0.009,-0.009 a 9,9 0 0 1 -0.235,-0.232 q -0.117,-0.117 -0.231,-0.236 -0.114,-0.119 -0.226,-0.243 c -0.074,-0.082 -0.142,-0.157 -0.212,-0.238 l -0.023,-0.027 a 9,9 0 0 1 -0.201,-0.238 12,12 0 0 1 -0.416,-0.525 q -0.203,-0.27 -0.396,-0.551 l -0.123,-0.184 q -0.246,-0.36 -0.479,-0.728 a 19,19 0 0 1 -0.339,-0.536 q -0.106,-0.17 -0.207,-0.339 l -0.028,-0.046 q -0.098,-0.164 -0.191,-0.327 a 3,3 0 0 1 -0.102,-0.179 c -0.033,-0.062 -0.071,-0.125 -0.106,-0.188 l -0.057,-0.099 -0.035,-0.064 q -0.1,-0.18 -0.197,-0.363 -0.044,-0.082 -0.09,-0.16 l -0.089,-0.173 -0.09,-0.171 q -0.338,-0.675 -0.638,-1.368 l -0.071,-0.169 q -0.067,-0.17 -0.135,-0.336 -0.034,-0.08 -0.063,-0.161 a 17,17 0 0 1 -0.776,-2.639 q -0.017,-0.083 -0.031,-0.163 a 12,12 0 0 1 -0.127,-0.806 q -0.012,-0.08 -0.02,-0.159 l -0.017,-0.162 a 11,11 0 0 1 -0.049,-0.638 q -0.002,-0.082 -0.007,-0.16 a 8,8 0 0 1 -0.008,-0.318 c -0.056,-4.273 2.106,-8.381 6.729,-13.002 8.235,-8.227 13.029,-20.266 13.029,-20.266 0,0 0.129,-0.505 0.397,-1.232 q 0.055,-0.151 0.12,-0.314 0.234,-0.611 0.527,-1.197 l 0.039,-0.075 q 0.25,-0.498 0.544,-0.971 c 0.046,-0.073 0.09,-0.145 0.141,-0.218 q 0.22,-0.326 0.465,-0.634 c 0.089,-0.111 0.186,-0.221 0.283,-0.328 q 0.057,-0.064 0.118,-0.124 c 0.477,-0.493 1.022,-0.895 1.639,-1.109 l 0.078,-0.026 q 0.078,-0.025 0.157,-0.048 0.091,-0.024 0.185,-0.043 l 0.029,-0.006 q 0.195,-0.039 0.395,-0.052 h 0.011 c 0.069,0 0.139,-0.007 0.21,-0.007 0.089,0 0.172,0 0.259,0.009 q 0.135,0.012 0.269,0.032 c 0.742,0.118 1.448,0.56 2.056,1.242 q 0.347,0.391 0.621,0.836 0.18,0.288 0.34,0.609 c 0.043,0.089 0.084,0.171 0.124,0.259 a 8,8 0 0 1 0.28,0.691 q 0.293,0.827 0.439,1.692 0.126,0.758 0.15,1.526 0.012,0.41 0,0.829 a 12,12 0 0 1 -0.787,3.792 q -0.065,0.167 -0.134,0.335 a 9,9 0 0 1 -0.302,0.665 q -0.12,0.248 -0.258,0.496 -0.09,0.165 -0.186,0.33 -0.242,0.41 -0.522,0.817 l -0.113,0.162 a 13.6,13.6 0 0 1 -1.472,1.728 15.4,15.4 0 0 1 -1.699,1.47 q -0.905,0.67 -1.689,1.477 c -1.503,1.577 -1.853,2.969 -1.515,4.024 q 0.081,0.25 0.211,0.479 0.152,0.261 0.357,0.48 l 0.053,0.055 0.054,0.054 q 0.08,0.078 0.172,0.153 l 0.06,0.048 q 0.218,0.168 0.46,0.3 c 0.047,0.025 0.089,0.05 0.142,0.074 q 0.261,0.128 0.537,0.217 0.076,0.025 0.154,0.048 l 0.065,0.017 0.09,0.024 0.077,0.019 0.084,0.018 0.083,0.017 0.079,0.013 q 0.087,0.016 0.178,0.027 l 0.057,0.009 0.104,0.01 0.064,0.007 0.105,0.007 h 0.062 l 0.11,0.006 h 0.346 l 0.099,-0.006 0.114,-0.007 0.139,-0.013 0.13,-0.015 c 0.03,0 0.06,-0.008 0.09,-0.014 0.4,-0.058 0.792,-0.164 1.167,-0.316 l 0.159,-0.067 a 4.819,4.819 0 0 0 0.772,-0.421 q 0.344,-0.225 0.647,-0.503 0.072,-0.066 0.141,-0.133 0.034,-0.032 0.067,-0.067 0.067,-0.066 0.133,-0.138 0.482,-0.53 0.825,-1.157 a 229,229 0 0 1 6.151,-10.514 l 0.294,-0.471 0.297,-0.471 q 0.223,-0.358 0.447,-0.708 l 0.15,-0.234 q 0.747,-1.17 1.519,-2.324 l 0.305,-0.456 c 0.612,-0.907 1.222,-1.789 1.827,-2.627 l 0.301,-0.415 a 56,56 0 0 1 2.054,-2.661 l 0.282,-0.338 c 0.047,-0.056 0.09,-0.112 0.141,-0.166 q 0.14,-0.165 0.277,-0.321 c 0.046,-0.053 0.089,-0.105 0.138,-0.157 l 0.268,-0.302 0.134,-0.147 q 0.202,-0.217 0.397,-0.417 c 0.09,-0.09 0.173,-0.179 0.259,-0.263 a 10.5,10.5 0 0 1 1.669,-1.386 l 0.14,-0.09 q 0.201,-0.136 0.415,-0.25 c 2.364,-1.342 4.321,-1.441 5.448,-0.314 0.682,0.682 1.06,1.813 1.039,3.387 q 0.001,0.103 -0.005,0.211 v 0.077 q -0.002,0.108 -0.012,0.217 c 0,0.09 -0.01,0.179 -0.019,0.269 -0.009,0.089 -0.014,0.157 -0.023,0.237 q -0.001,0.033 -0.008,0.069 -0.01,0.104 -0.025,0.211 0.002,0.032 -0.008,0.065 a 5,5 0 0 1 -0.041,0.283 c -0.011,0.09 -0.026,0.174 -0.042,0.262 l -0.026,0.149 a 4,4 0 0 1 -0.1,0.42 6,6 0 0 1 -0.283,0.758 11,11 0 0 1 -0.514,0.987 q -0.156,0.267 -0.322,0.526 -0.172,0.269 -0.358,0.543 -0.474,0.678 -0.985,1.328 l -0.156,0.197 a 51,51 0 0 1 -1.722,2.035 l -0.187,0.21 q -0.378,0.422 -0.77,0.848 l -0.197,0.214 c -0.131,0.143 -0.268,0.286 -0.4,0.43 q -0.198,0.215 -0.406,0.433 l -0.411,0.433 -0.417,0.436 -0.42,0.436 q -0.423,0.438 -0.85,0.876 c -4.055,4.159 -8.327,8.304 -9.773,10.888 a 5,5 0 0 0 -0.262,0.519 c -0.206,0.47 -0.292,0.872 -0.233,1.197 a 0.9,0.9 0 0 0 0.111,0.303 q 0.122,0.212 0.295,0.387 0.08,0.078 0.168,0.144 c 0.298,0.212 0.657,0.321 1.023,0.311 h 0.114 l 0.117,-0.009 0.117,-0.013 0.097,-0.014 q 0.02,-0.002 0.04,-0.008 l 0.089,-0.017 0.023,-0.005 0.099,-0.021 0.035,-0.009 0.104,-0.028 c 0.035,-0.01 0.083,-0.023 0.125,-0.037 q 0.264,-0.08 0.517,-0.188 0.133,-0.054 0.262,-0.117 0.068,-0.03 0.132,-0.063 l 0.134,-0.066 q 0.48,-0.25 0.936,-0.541 l 0.133,-0.09 q 0.068,-0.041 0.133,-0.089 l 0.133,-0.089 0.071,-0.049 0.192,-0.135 c 0.179,-0.123 0.346,-0.25 0.515,-0.379 l 0.015,-0.012 0.269,-0.208 c 0.367,-0.29 0.715,-0.582 1.031,-0.857 l 0.21,-0.184 0.019,-0.018 0.11,-0.097 c 0.258,-0.232 0.488,-0.448 0.679,-0.626 l 0.079,-0.077 q 0.103,-0.099 0.189,-0.178 l 0.112,-0.111 0.04,-0.039 0.011,-0.011 0.117,-0.117 0.074,-0.077 0.009,-0.007 0.035,-0.032 0.044,-0.04 0.014,-0.013 0.037,-0.034 0.204,-0.179 0.114,-0.102 q 0.091,-0.08 0.179,-0.162 l 0.136,-0.121 q 0.037,-0.03 0.074,-0.064 l 0.143,-0.125 0.21,-0.185 0.112,-0.097 c 0.435,-0.378 0.964,-0.835 1.572,-1.35 l 0.249,-0.211 0.411,-0.345 0.421,-0.351 c 0.55,-0.457 1.142,-0.942 1.768,-1.445 l 0.411,-0.33 q 0.526,-0.42 1.073,-0.849 0.22,-0.173 0.448,-0.344 0.558,-0.434 1.123,-0.859 c 0.858,-0.648 1.743,-1.297 2.639,-1.929 l 0.384,-0.268 q 0.403,-0.279 0.805,-0.552 l 0.243,-0.164 q 0.72,-0.488 1.455,-0.951 l 0.243,-0.153 0.241,-0.15 q 0.363,-0.225 0.721,-0.44 l 0.239,-0.143 0.478,-0.278 0.469,-0.269 0.095,-0.052 0.371,-0.204 q 0.232,-0.126 0.463,-0.244 l 0.229,-0.118 0.223,-0.112 q 0.117,-0.057 0.231,-0.113 a 22,22 0 0 1 1.954,-0.845 l 0.41,-0.144 q 0.185,-0.062 0.358,-0.115 l 0.04,-0.012 q 0.093,-0.03 0.185,-0.054 l 0.018,-0.005 q 0.192,-0.055 0.38,-0.099 h 0.009 a 8,8 0 0 1 1.077,-0.183 q 0.25,-0.026 0.502,-0.025 h 0.084 q 0.167,0 0.327,0.018 c 0.049,0 0.098,0.01 0.146,0.016 h 0.02 q 0.072,0.008 0.144,0.024 0.071,0.013 0.141,0.028 h 0.015 c 0.047,0.01 0.089,0.022 0.138,0.036 0.254,0.071 0.496,0.181 0.718,0.325 q 0.164,0.107 0.305,0.24 l 0.027,0.026 0.051,0.05 0.049,0.053 c 0.402,0.421 0.734,0.904 0.984,1.43 l 0.038,0.09 q 0.128,0.3 0.2,0.618 c 0.142,0.646 0.087,1.32 -0.158,1.935 a 4.7,4.7 0 0 1 -0.339,0.715 8,8 0 0 1 -1.099,1.452 l -0.089,0.095 q -0.199,0.21 -0.416,0.42 -0.097,0.094 -0.198,0.188 l -0.205,0.189 -0.107,0.095 q -0.388,0.345 -0.792,0.669 -0.244,0.198 -0.493,0.388 -0.879,0.672 -1.791,1.297 a 60,60 0 0 1 -1.11,0.743 100,100 0 0 1 -2.786,1.763 c -1.968,1.21 -4.149,2.504 -6.474,3.911 l -0.602,0.365 q -0.988,0.603 -1.867,1.152 l -0.295,0.185 -0.558,0.358 q -0.555,0.356 -1.108,0.715 l -0.297,0.196 q -0.217,0.142 -0.433,0.286 l -0.141,0.09 -0.432,0.291 -0.229,0.157 -0.268,0.186 -0.249,0.173 q -0.626,0.442 -1.162,0.843 l -0.134,0.102 q -0.315,0.239 -0.623,0.486 -0.464,0.373 -0.844,0.716 l -0.124,0.113 q -0.107,0.098 -0.208,0.194 -0.067,0.068 -0.137,0.133 l -0.064,0.064 q -0.215,0.216 -0.418,0.442 l -0.066,0.076 q -0.22,0.254 -0.387,0.492 l -0.05,0.071 q -0.132,0.192 -0.242,0.396 -0.028,0.051 -0.053,0.102 l -0.049,0.102 -0.033,0.074 -0.021,0.05 -0.017,0.045 -0.023,0.061 a 2.6,2.6 0 0 0 -0.13,0.523 l -0.008,0.062 -0.006,0.058 v 0.315 q -0.002,0.038 0.007,0.08 l 0.005,0.048 c 0,0.026 0.006,0.051 0.01,0.079 0.004,0.026 0.011,0.073 0.019,0.11 v 0.005 q 0.01,0.052 0.023,0.104 c 0.009,0.035 0.018,0.075 0.029,0.111 q 0.03,0.106 0.068,0.211 0.023,0.063 0.048,0.124 0.002,0.012 0.01,0.025 l 0.036,0.081 0.05,0.111 q 0.081,0.172 0.177,0.336 l 0.066,0.114 0.068,0.114 a 0.4,0.4 0 0 0 0.041,0.054 l 0.022,0.023 0.025,0.023 0.026,0.02 a 0.5,0.5 0 0 0 0.122,0.063 q 0.035,0.012 0.071,0.02 c 0.577,0.13 1.763,-0.347 3.339,-1.179 0.089,-0.048 0.187,-0.098 0.282,-0.15 l 0.48,-0.262 0.234,-0.13 c 0.167,-0.089 0.337,-0.19 0.511,-0.289 l 0.317,-0.179 c 2.083,-1.199 4.571,-2.739 7.143,-4.243 q 0.362,-0.212 0.725,-0.421 l 0.486,-0.311 q 0.846,-0.485 1.7,-0.957 a 80,80 0 0 1 2.168,-1.15 l 0.476,-0.241 q 0.474,-0.234 0.938,-0.456 a 41,41 0 0 1 1.815,-0.809 l 0.335,-0.136 0.04,-0.016 c 1.775,-0.703 3.384,-1.137 4.686,-1.137 q 0.423,-0.004 0.84,0.069 h 0.009 c 0.089,0.016 0.17,0.034 0.253,0.054 h 0.015 q 0.32,0.081 0.616,0.23 c 0.275,0.142 0.522,0.331 0.731,0.559 q 0.144,0.16 0.256,0.343 0.21,0.324 0.329,0.692 c 0.032,0.095 0.06,0.188 0.089,0.287 a 3.93,3.93 0 0 1 -0.06,2.305"
     id="path2" />
  <path
     fill="#ffd21e"
     fill-rule="evenodd"
     d="m 177.74016,91.54 v -0.491 c 0,-41.854 -33.918,-75.783 -75.775,-75.783 -41.855999,0 -75.786999,33.931 -75.786999,75.783 v 0.164 a 7,7 0 0 0 0,0.327 q 0.008,0.244 0.005,0.489 l 0.005,0.36 0.003,0.129 q 0,0.09 0.004,0.179 0.005,0.143 0.005,0.286 l 0.011,0.389 0.016,0.457 0.005,0.15 0.02,0.473 v 0.023 q 0.013,0.277 0.027,0.553 l 0.001,0.014 q 0.014,0.282 0.032,0.566 0.014,0.261 0.033,0.522 l 0.002,0.031 q 0.014,0.224 0.03,0.448 l 0.003,0.04 0.033,0.432 0.003,0.028 q 0.008,0.127 0.02,0.249 0.09,1.082 0.21,2.161 l 0.004,0.045 0.061,0.529 0.068,0.555 0.05,0.377 0.023,0.177 q 0.08,0.612 0.173,1.221 l 0.004,0.027 0.059,0.384 q 0.429,2.745 1.06,5.45 l 0.005,0.022 0.032,0.135 0.091,0.385 0.056,-0.067 c 2.2,-2.63 5.356,-4.08 8.887,-4.08 2.83,0 5.733,0.936 8.643,2.781 1.93,1.226 4.064,3.397 6.26,6.128 2.032,-2.822 4.88,-4.698 8.138,-5.21 0.621,-0.098 1.25,-0.147 1.878,-0.148 7.436,0 11.915,6.453 13.607,12.258 0.836,1.961 4.865,10.893 10.941,16.935 9.236,9.227 11.547,18.748 6.976,28.943 h 0.016 q 0.466,0.053 0.939,0.096 0.28,0.028 0.561,0.052 l 0.066,0.006 0.413,0.035 0.38,0.03 q 0.543,0.042 1.089,0.077 l 0.289,0.017 0.229,0.014 0.142,0.008 0.447,0.023 0.122,0.005 0.469,0.021 0.522,0.02 0.419,0.012 0.07,0.002 q 0.133,0.006 0.266999,0.007 l 0.096,0.003 q 0.885,0.021 1.769,0.02 h 0.626 l 0.447,-0.005 q 0.164,-0.006 0.33,-0.005 h 0.174 l 0.151,-0.004 q 0.088,-0.004 0.178,-0.004 h 0.179 l 0.351,-0.009 0.528,-0.018 0.581,-0.026 q 0.252,-0.01 0.5,-0.023 l 0.179,-0.011 0.266,-0.014 0.156,-0.009 0.118,-0.008 0.537,-0.035 0.536,-0.039 0.487,-0.039 0.342,-0.029 0.376,-0.034 a 62,62 0 0 0 1.88,-0.197 l 0.427,-0.051 c -4.499,-10.152 -2.17,-19.632 7.027,-28.822 6.063,-6.058 10.092,-14.99 10.932,-16.952 1.693,-5.804 6.169,-12.257 13.607,-12.257 0.629,0 1.258,0.05 1.879,0.148 3.255,0.512 6.103,2.388 8.138,5.21 2.197,-2.73 4.33,-4.903 6.261,-6.129 2.909,-1.844 5.815,-2.78 8.642,-2.78 3.116,0 5.94,1.13 8.073,3.203 q 0.058,-0.253 0.114,-0.508 l 0.109,-0.506 q 0.059,-0.278 0.115,-0.555 0.1,-0.49 0.195,-0.984 0.099,-0.513 0.189,-1.03 l 0.031,-0.186 q 0.028,-0.165 0.058,-0.331 0.05,-0.258 0.09,-0.518 l 0.011,-0.066 0.071,-0.453 0.07,-0.459 v -0.004 q 0.076,-0.508 0.144,-1.017 l 0.011,-0.084 0.063,-0.478 0.051,-0.408 0.09,-0.804 0.035,-0.323 0.009,-0.088 q 0.029,-0.261 0.053,-0.522 v -0.014 q 0.02,-0.207 0.039,-0.416 0.107,-1.182 0.179,-2.375 0.013,-0.195 0.024,-0.392 v -0.006 l 0.026,-0.491 0.006,-0.11 q 0.024,-0.498 0.041,-0.996 v -0.012 l 0.005,-0.13 q 0.008,-0.164 0.009,-0.329 l 0.002,-0.044 q 0.007,-0.156 0.008,-0.314 l 0.003,-0.09 q 0.005,-0.157 0.006,-0.314 l 0.002,-0.089 q 0.005,-0.2 0.006,-0.4 z m -94.571999,75.706 c 6.002,-8.801 5.576,-15.407 -2.658,-23.637 -8.236,-8.231 -13.029,-20.267 -13.029,-20.267 0,0 -1.789,-6.991 -5.869,-6.349 -4.08,0.642 -7.073,11.089 1.47,17.484 8.542,6.395 -1.7,10.731 -4.988,4.73 -3.288,-6.002 -12.265,-21.429 -16.919,-24.38 -4.654,-2.951 -7.927,-1.297 -6.83,4.785 0.545,3.019 5.613,8.172 10.348,12.986 4.804,4.884 9.265,9.42 8.311,11.025 -1.893,3.187 -8.56,-3.745 -8.56,-3.745 0,0 -20.876,-18.998 -25.42,-14.047 -4.19,4.563 2.271,8.442 12.227,14.421 q 1.27,0.762 2.611,1.572 c 11.391,6.896 12.277,8.715 10.66,11.324 -0.597,0.964 -4.41,-1.325 -9.1,-4.14 -7.995,-4.801 -18.537,-11.13 -20.026,-5.465 -1.288,4.903 6.468,7.907 13.502,10.632 5.86,2.27 11.22,4.346 10.431,7.164 -0.817,2.922 -5.246,0.485 -10.087,-2.179 -5.435,-2.991 -11.39,-6.267 -13.339,-2.57 -3.683,6.99 25.41,15.219 25.65,15.28 9.4,2.438 33.272,7.604 41.615,-4.624 m 38.664999,0 c -6.002,-8.801 -5.576,-15.407 2.659,-23.637 8.235,-8.23 13.028,-20.267 13.028,-20.267 0,0 1.789,-6.991 5.869,-6.349 4.08,0.642 7.073,11.089 -1.469,17.484 -8.542,6.395 1.699,10.731 4.987,4.73 3.289,-6.002 12.26,-21.429 16.914,-24.38 4.654,-2.951 7.929,-1.297 6.831,4.785 -0.544,3.019 -5.613,8.172 -10.348,12.987 -4.804,4.884 -9.265,9.419 -8.312,11.024 1.893,3.187 8.565,-3.749 8.565,-3.749 0,0 20.875,-18.997 25.421,-14.046 4.189,4.562 -2.272,8.442 -12.229,14.421 q -1.306,0.784 -2.61,1.572 c -11.391,6.896 -12.277,8.715 -10.661,11.323 0.598,0.965 4.411,-1.325 9.1,-4.14 7.996,-4.8 18.538,-11.13 20.027,-5.464 1.289,4.903 -6.468,7.907 -13.502,10.632 -5.86,2.27 -11.22,4.346 -10.432,7.164 0.816,2.921 5.244,0.484 10.084,-2.18 5.435,-2.991 11.391,-6.269 13.339,-2.569 3.684,6.994 -25.414,15.215 -25.649,15.275 -9.4,2.446 -33.272,7.612 -41.612,-4.616"
     clip-rule="evenodd"
     id="path3" />
  <path
     fill="#32343d"
     fill-rule="evenodd"
     d="m 126.57716,70.422 c 1.182,0.418 2.061,1.69 2.897,2.901 1.13,1.636 2.182,3.159 3.796,2.301 a 10.909,10.909 0 0 0 4.247,-15.214 10.91,10.91 0 0 0 -7.742,-5.198 10.904,10.904 0 0 0 -11.689,6.589 10.909,10.909 0 0 0 0.436,9.314 c 0.748,1.407 2.408,0.743 4.16,0.042 1.373,-0.549 2.804,-1.121 3.895,-0.735 m -51.374999,0 c -1.182,0.418 -2.061,1.691 -2.897,2.901 -1.13,1.637 -2.183,3.159 -3.796,2.301 a 10.903,10.903 0 0 1 8.263,-20.068 10.91,10.91 0 0 1 7.707,9.348 10.9,10.9 0 0 1 -1.221,6.211 c -0.749,1.407 -2.409,0.743 -4.161,0.043 -1.374,-0.55 -2.803,-1.122 -3.895,-0.736 m 43.426999,46.751 c 8.143,-6.415 11.134,-16.889 11.134,-23.341 0,-5.1 -3.431,-3.495 -8.924,-0.775 l -0.31,0.153 c -5.042,2.497 -11.754,5.822 -19.122,5.822 -7.367999,0 -14.080999,-3.325 -19.121999,-5.823 -5.671,-2.809 -9.228,-4.571 -9.228,0.624 0,6.656 3.182,17.585 11.916,23.934 a 18.97,18.97 0 0 1 11.575,-9.786 c 0.872,-0.26 1.77,1.241 2.689,2.778 0.886999,1.482 1.793999,2.998 2.715999,2.998 0.983,0 1.948,-1.494 2.891,-2.952 0.985,-1.525 1.946,-3.01 2.875,-2.713 a 18.97,18.97 0 0 1 10.91,9.081"
     clip-rule="evenodd"
     id="path4" />
  <path
     fill="#ff323d"
     d="m 118.62716,117.172 c -4.241,3.342 -9.878,5.583 -17.219,5.583 -6.896999,0 -12.290999,-1.978 -16.434999,-4.989 a 18.966,18.966 0 0 1 11.575,-9.786 c 1.712,-0.511 3.526999,5.776 5.404999,5.776 2.01,0 3.947,-6.246 5.766,-5.665 a 18.97,18.97 0 0 1 10.908,9.081"
     id="path5" />
  <path
     fill="#ffad03"
     fill-rule="evenodd"
     d="m 55.730161,79.495 a 7.08,7.08 0 0 1 -6.65,0.655 7.062,7.062 0 0 1 -3.837,-3.837 7.08,7.08 0 0 1 0.657,-6.65 7.087,7.087 0 1 1 9.83,9.832 m 101.412999,0 a 7.08,7.08 0 0 1 -6.651,0.655 7.06,7.06 0 0 1 -3.837,-3.837 7.1,7.1 0 0 1 -0.504,-3.407 7.1,7.1 0 0 1 3.411,-5.385 7.08,7.08 0 0 1 8.656,1.07 7.079,7.079 0 0 1 1.536,7.724 7.1,7.1 0 0 1 -2.611,3.18"
     clip-rule="evenodd"
     id="path6" />
</svg>
